<svg width="205" height="85" viewBox="0 0 205 85" fill="none" xmlns="http://www.w3.org/2000/svg">
<path d="M0.5 65.22C0.5 65.22 0.52 17.05 15.07 36.88C29.62 56.7 -0.949999 38.02 22.12 10.71C45.19 -16.6 94.36 19.51 94.36 19.51" stroke="white" stroke-miterlimit="10"/>
<path d="M86.01 62.52C86.01 62.52 122.27 111.03 176.39 61.5" stroke="white" stroke-miterlimit="10"/>
<path d="M134.67 14.5331C134.66 14.4031 134.78 14.2931 134.91 14.2731C135.04 14.2531 135.17 14.3031 135.29 14.3431C135.34 14.4631 135.23 14.5831 135.11 14.6031C134.98 14.6131 134.87 14.5631 134.76 14.5031" fill="white"/>
<path d="M120.84 18.5231C120.71 18.5131 120.58 18.4231 120.52 18.2931C120.74 18.1031 121.15 18.3231 121.11 18.6031C121.02 18.5831 120.93 18.5731 120.84 18.5631" fill="white"/>
<path d="M99.94 23.7631C99.86 23.6731 99.77 23.5631 99.78 23.4431C99.78 23.3231 99.94 23.2131 100.03 23.2931C100.06 23.3131 100.08 23.3631 100.09 23.3931C100.15 23.5431 100.2 23.7031 100.24 23.8631C100.14 23.9131 100 23.8831 99.93 23.8031" fill="white"/>
<path d="M120.36 18.5931C120.2 18.8031 119.84 18.8431 119.64 18.6731C119.74 18.4431 120.1 18.3731 120.27 18.5631" fill="white"/>
<path d="M122.75 19.2732C122.91 19.2732 123.12 19.2832 123.19 19.4332C122.91 19.5532 122.59 19.5732 122.3 19.4932C122.26 19.4432 122.27 19.3532 122.32 19.3032C122.46 19.2932 122.6 19.2732 122.74 19.2632" fill="white"/>
<path d="M106.76 15.4231C106.69 15.4331 106.6 15.4431 106.56 15.3831C106.48 15.2831 106.63 15.1631 106.74 15.1331C106.96 15.0831 107.19 15.0631 107.42 15.1131C107.47 15.1631 107.46 15.2631 107.4 15.3031C107.19 15.3431 106.97 15.3831 106.76 15.4231Z" fill="white"/>
<path d="M107.29 15.5231C107.39 15.4831 107.5 15.4331 107.6 15.4731C107.69 15.5031 107.75 15.5931 107.81 15.6831C107.48 15.8331 107.09 15.8631 106.74 15.7531C106.92 15.6731 107.11 15.5931 107.29 15.5231Z" fill="white"/>
<path d="M130.67 13.0631C130.64 12.9931 130.64 12.9231 130.66 12.8631C131 12.8331 131.36 12.8831 131.7 12.9931C131.73 13.0031 131.77 13.0231 131.8 13.0531C131.84 13.1131 131.8 13.2031 131.72 13.2331C131.65 13.2631 131.57 13.2531 131.5 13.2331C131.22 13.1731 130.95 13.1131 130.67 13.0631Z" fill="white"/>
<path d="M118.56 10.8632C118.61 10.8932 118.65 10.9632 118.65 11.0232C118.32 11.1232 118 11.2232 117.68 11.3232C117.62 11.1332 117.68 10.9032 117.84 10.7632C118.02 10.9532 118.34 11.0032 118.57 10.8632" fill="white"/>
<path d="M105.7 26.5732C106.08 26.4232 106.5 26.3732 106.9 26.4232C107 26.4332 107.12 26.4632 107.14 26.5632C106.68 26.7132 106.17 26.7132 105.71 26.5632" fill="white"/>
<path d="M119.31 8.14316C119.42 8.12316 119.52 8.11316 119.63 8.11316C119.73 8.11316 119.85 8.16316 119.86 8.26316C119.41 8.46316 118.92 8.54316 118.44 8.51316C118.7 8.33316 119 8.20316 119.31 8.14316Z" fill="white"/>
<path d="M119.13 9.27313C118.79 9.35313 118.45 9.42313 118.11 9.49313C118.16 9.32313 118.29 9.17313 118.46 9.10313C118.39 9.05313 118.31 8.99313 118.24 8.94313C118.62 8.76313 119.06 8.71313 119.47 8.80313C119.35 8.92313 119.17 8.98313 119 8.97313C119.05 9.07313 119.08 9.17313 119.13 9.26313" fill="white"/>
<path d="M121.89 22.6431C121.98 22.6831 121.87 22.8131 121.79 22.8331C121.23 23.0131 120.63 23.0831 120.04 23.0131C119.92 23.0031 119.76 22.9131 119.82 22.8131C120.51 22.7631 121.2 22.7031 121.89 22.6531" fill="white"/>
<path d="M119.35 10.8231C119.23 10.7231 119.37 10.5331 119.5 10.4531C120.08 10.1031 120.72 9.85313 121.34 9.59313C121.76 9.42313 122.25 9.25313 122.66 9.45313C122.61 9.69313 122.28 9.68313 122.04 9.71313C121.84 9.74313 121.66 9.82313 121.48 9.89313C120.77 10.2031 120.07 10.5131 119.36 10.8231" fill="white"/>
<path d="M111.21 11.1831C111.01 11.2631 110.81 11.3531 110.68 11.5131C110.29 12.0131 109.84 12.4531 109.34 12.8331C109.83 12.9731 110.27 12.5131 110.69 12.2231C110.87 12.0931 111.15 12.0031 111.3 12.1531C110.89 12.6231 110.34 12.9431 109.73 13.0631C109.47 13.1131 109.2 13.1331 108.95 13.2131C108.7 13.3031 108.46 13.4831 108.4 13.7431C109.01 13.6231 109.63 13.5031 110.25 13.3931C110.32 13.4331 110.32 13.5531 110.26 13.6131C110.2 13.6831 110.12 13.7131 110.03 13.7331C109.46 13.8631 108.88 13.9431 108.31 13.9531C108.13 13.9531 107.95 14.0931 107.91 14.2631C107.76 14.0931 107.79 13.8131 107.92 13.6331C108.04 13.4431 108.25 13.3231 108.43 13.1931C108.71 13.0031 108.97 12.8031 109.23 12.5931C109.31 12.5231 109.41 12.4431 109.44 12.3331C109.47 12.2331 109.46 12.1231 109.45 12.0231C109.41 11.4231 109.71 10.8131 110.22 10.4931C110.32 11.0531 109.55 11.5631 109.8 12.0631C109.94 12.0131 110.01 11.8531 110.09 11.7331C110.52 11.0431 111.35 10.7531 112.11 10.5031C112.26 10.4531 112.51 10.4931 112.47 10.6431C112.05 10.8231 111.62 11.0031 111.2 11.1731" fill="white"/>
<path d="M123.27 21.3331C123.74 21.5431 124.12 21.9431 124.32 22.4131C123.69 22.3631 123.4 21.5931 122.85 21.2731C122.67 21.1731 122.47 21.1231 122.27 21.0531C121.59 20.8431 120.97 20.4931 120.44 20.0331C120.37 20.3131 120.61 20.5531 120.82 20.7531C121.03 20.9431 121.25 21.2231 121.13 21.4831C120.7 21.3031 120.55 20.8031 120.29 20.4131C119.85 19.7331 118.97 19.3731 118.17 19.5331C117.91 19.5931 117.62 19.6931 117.38 19.5631C117.77 19.0831 118.52 19.2631 119.14 19.2831C120.36 19.3331 121.54 18.6231 122.74 18.8031C122.47 19.0931 122.04 19.1731 121.65 19.2331C121.06 19.3331 120.48 19.4231 119.89 19.5131C120.18 19.6631 120.47 19.8131 120.76 19.9731C120.98 20.0831 121.2 20.1931 121.43 20.2531C122.09 20.4131 122.85 20.1231 123.45 20.4531C123.09 20.8431 122.36 20.3031 121.92 20.6231C122.7 21.1131 123.73 20.7731 124.63 20.9631C124.79 20.9931 124.99 21.1031 124.95 21.2731C124.47 21.2331 124 21.1931 123.52 21.1531C123.4 21.1531 123.22 21.2031 123.27 21.3231" fill="white"/>
<path d="M132.41 13.9032C132.96 13.9232 133.51 13.9532 134.06 13.9732C134.16 13.9732 134.27 13.9932 134.35 14.0432C134.43 14.1032 134.46 14.2532 134.38 14.3132C133.93 14.2432 133.47 14.1732 133.03 14.1032C132.9 14.0832 132.7 14.1332 132.74 14.2632C133.32 14.4532 133.87 14.7132 134.37 15.0432C133.8 15.1832 133.25 14.8032 132.76 14.4732C132.28 14.1432 131.66 13.8232 131.13 14.0932C131.71 14.3332 132.29 14.5832 132.87 14.8332C132.38 15.1332 131.75 14.8132 131.29 14.4632C130.83 14.1132 130.29 13.7032 129.73 13.8732C130.12 14.2332 130.5 14.5732 130.88 14.9332C130.74 15.1032 130.48 14.9432 130.32 14.7932C129.25 13.8232 127.79 13.3032 126.35 13.3832C126.03 13.4032 125.65 13.4232 125.47 13.1532C126.66 13.1032 127.83 12.7532 128.86 12.1732C128.99 12.0932 129.13 12.0132 129.28 12.0132C129.43 12.0032 129.6 12.0832 129.63 12.2332C128.86 12.4932 128.1 12.8132 127.38 13.1932C128.54 13.3432 129.59 12.5332 130.72 12.1832C131.07 12.0832 131.49 12.0332 131.76 12.2832C131.1 12.3732 130.45 12.5432 129.85 12.8132C129.91 12.9332 129.97 13.0532 130.04 13.1632C129.51 13.0832 128.97 13.1532 128.49 13.3832C130.18 13.7932 131.97 13.8032 133.66 13.4032C133.99 13.3232 134.37 13.2532 134.61 13.4932C133.88 13.6432 133.16 13.7832 132.43 13.9332" fill="white"/>
<path d="M116.61 14.5731C118.54 13.7831 120.58 13.2631 122.66 13.0431C123.4 12.9631 124.17 12.9231 124.87 12.6431C125.5 12.3931 126.05 11.9731 126.66 11.6531C128.57 10.6631 130.91 10.8431 132.91 11.6131C134.91 12.3931 136.65 13.7131 138.35 15.0131C137.39 15.0631 136.44 15.2831 135.55 15.6631C134.74 16.0131 134 16.4831 133.17 16.8031C130.66 17.7531 127.58 16.9531 125.87 14.8931C125.35 14.2731 124.41 14.2831 123.6 14.3831C119.61 14.8831 115.72 16.1831 112.23 18.1731C115.49 19.0031 118.99 16.9131 122.22 17.8331C124.46 18.4731 126.05 20.4031 127.49 22.2331C125.5 23.1731 123.31 23.8731 121.11 23.6731C118.91 23.4731 116.71 22.1931 115.92 20.1331C115.69 19.5531 114.95 19.3931 114.32 19.3731C110.14 19.2131 106.17 21.0531 102.39 22.8531C103.96 22.8931 105.53 22.9431 107.1 22.9931C108.26 23.0231 109.44 23.0531 110.54 23.4431C111.64 23.8231 112.65 24.6231 113 25.7331C113.35 26.8731 113.18 28.5031 114.32 28.8931C114.72 29.0331 115.3 29.0331 115.4 29.4431C113.57 30.6031 111.19 30.8431 109.16 30.0831C107.13 29.3231 105.5 27.5731 104.89 25.5031C104.68 24.7731 103.95 24.2831 103.21 24.1431C102.47 24.0031 101.7 24.1431 100.98 24.3531C97.6 25.2931 94.63 27.3331 91.99 29.6431C91.28 30.2531 90.45 30.9331 89.53 30.7531C89.84 30.9631 90.15 31.1931 90.46 31.4031C89.38 31.4731 88.34 30.5931 88.23 29.5131C89.94 28.8431 91.27 27.5031 92.75 26.4231C94.98 24.7831 97.57 23.7131 99.99 22.3831C102.41 21.0431 104.76 19.3231 106.03 16.8631C106.17 16.5831 106.3 16.2531 106.17 15.9731C105.23 13.8931 106.04 11.1931 107.96 9.97312C108.89 9.39312 109.98 9.13313 111 8.71313C112.01 8.30313 113.02 7.62312 113.36 6.57312C113.31 7.34312 113.24 8.11313 113.19 8.88313C113.03 10.9631 112.69 13.3631 110.9 14.4431C108.41 15.9531 106.25 17.9931 104.6 20.3931C106.94 19.1631 109.29 17.9331 111.63 16.7131C114 15.4631 116.65 13.8631 117.05 11.2131C117.49 8.28313 119.13 5.41312 121.77 4.06312C124.04 2.89312 126.72 2.95312 129.27 3.04313C128.79 3.78313 128.78 4.72312 128.54 5.58312C128.22 6.77312 127.45 7.81313 126.57 8.68313C125.41 9.83312 124.03 10.7731 122.52 11.4131C120.44 12.3031 117.97 12.7431 116.63 14.5731M106.96 19.3931C107.08 19.5131 107.19 19.6431 107.31 19.7731C106.32 19.4531 105.38 20.8331 104.41 20.5031C104.69 20.6431 104.98 20.7831 105.27 20.9231C104.32 20.9131 103.37 21.1031 102.5 21.4731C102.65 21.5431 102.78 21.6131 102.93 21.6831C101.4 22.2631 99.91 22.9731 98.49 23.7931C99.49 24.5031 100.85 23.8531 102.07 23.7931C102.78 23.7531 103.48 23.9131 104.17 24.0731C104.67 24.1931 105.29 24.4931 105.19 24.9931C106.04 25.0131 106.88 25.0331 107.73 25.0431C108.93 25.0731 110.25 25.1431 111.1 25.9831C110.25 25.7431 109.39 25.5531 108.52 25.4231C109.04 26.3531 110.03 27.0031 111.08 27.1231C111.65 27.1931 112.37 27.1931 112.62 27.7031C111.93 27.5831 111.24 27.4631 110.54 27.3431C110.99 27.6531 111.46 27.9731 111.91 28.2831C111.04 28.0931 110.22 27.6331 109.6 26.9931C109.85 27.6431 110.18 28.2531 110.57 28.8231C109.94 28.2531 109.32 27.6831 108.69 27.1131C108.96 27.1731 109.24 27.2231 109.5 27.2731C108.87 25.6331 106.68 24.8231 105.12 25.6431C105.66 25.9131 106.26 26.0531 106.86 26.0331C106.42 26.1931 105.95 26.2631 105.48 26.2331C105.37 26.6731 105.92 27.0031 106.38 27.0031C106.84 27.0031 107.34 26.8831 107.73 27.1031C107.18 27.2131 106.63 27.3131 106.08 27.4131C106.64 27.6031 107.25 27.6131 107.81 27.4631C107.41 27.7231 106.94 27.8831 106.47 27.9231C106.98 28.1031 107.55 28.1231 108.08 27.9931C107.74 28.2331 107.34 28.3631 106.92 28.3931C107.37 28.5431 107.86 28.5831 108.33 28.5431C108.06 28.6931 107.76 28.8131 107.46 28.8831C108.07 28.9631 108.69 28.9631 109.31 28.9131C108.93 29.0431 108.54 29.1731 108.16 29.3031C108.81 29.4031 109.47 29.3731 110.11 29.2431C109.85 29.4931 109.48 29.6331 109.11 29.6131C110.93 30.4431 113.13 30.3431 114.86 29.3531C114.1 29.6231 113.22 29.5431 112.52 29.1331C113 29.1631 113.47 29.1931 113.95 29.2231C112.47 28.3631 113.36 25.6531 111.95 24.6731C110.92 23.9531 109.38 24.7131 108.31 24.0731C109.17 23.8831 110.09 23.8931 110.95 24.0931C110.47 23.5231 109.59 23.5331 108.86 23.6531C108.12 23.7831 107.31 23.9631 106.66 23.5831C105.98 23.1831 105.1 24.0031 104.35 23.7431C103.13 23.3131 101.78 23.2431 100.52 23.5431C102.24 22.5531 104.02 21.6531 105.85 20.8731C107.13 20.3231 108.44 19.8231 109.8 19.4931C112.11 18.9331 114.53 18.8531 116.87 19.2731C116.62 19.3531 116.37 19.4531 116.12 19.5431C116.49 19.8231 116.9 20.0531 117.35 20.2031C116.95 20.2231 116.55 20.2431 116.15 20.2631C116.7 20.4631 117.26 20.6631 117.81 20.8631C117.41 20.8631 117.01 20.8731 116.61 20.8831C117.24 21.2831 118.02 21.4231 118.74 21.2831C118.23 21.4531 117.71 21.5731 117.18 21.6431C117.92 21.7931 118.67 21.8431 119.42 21.7831C118.9 21.9931 118.35 22.1031 117.78 22.1131C118.59 22.3831 119.47 22.4131 120.3 22.2031C119.91 22.4931 119.42 22.6431 118.94 22.6331C120 23.4431 121.55 23.5731 122.74 22.9431C122.43 23.1231 122.15 23.3631 121.91 23.6331C123.63 23.1931 125.33 22.6831 126.99 22.1031C126.36 22.0931 125.72 21.8631 125.23 21.4631C125.7 21.5431 126.16 21.6331 126.63 21.7231C125.61 20.4931 124.47 19.3131 123.06 18.5731C121.65 17.8331 119.92 17.5631 118.44 18.1831C117.14 18.7231 115.69 18.7031 114.29 18.6831C113.11 18.6631 111.94 18.6431 110.76 18.6231C113.97 16.6831 117.48 15.2331 121.13 14.3531C123.2 13.8631 125.43 13.5631 127.4 14.3531C126.85 14.3431 126.31 14.3731 125.77 14.4731C126.44 14.5831 127.1 14.7431 127.75 14.9631C127.24 14.9431 126.74 14.9331 126.23 14.9131C126.73 15.2231 127.3 15.4231 127.88 15.4831C127.55 15.5431 127.21 15.5831 126.88 15.6131C127.72 15.8331 128.57 16.0131 129.42 16.1831C128.9 16.3131 128.34 16.2731 127.83 16.0931C128.7 16.8531 130.03 16.5131 131.12 16.1431C130.86 16.5431 130.36 16.7631 129.89 16.6831C130.31 17.1031 131.02 16.8431 131.52 16.5331C132.01 16.2131 132.59 15.8331 133.14 16.0531C132.54 16.3331 131.94 16.6031 131.34 16.8831C133.31 17.2131 134.87 14.9131 136.86 14.8931C136.54 14.8131 136.25 14.6331 136.04 14.3831C136.59 14.5431 137.14 14.7131 137.68 14.8731C136.11 13.7331 134.52 12.5831 132.71 11.9131C130.89 11.2331 128.8 11.0731 127.06 11.9131C126.46 12.2031 125.91 12.6031 125.31 12.9031C123.73 13.7031 121.89 13.7831 120.14 14.0831C116.52 14.7231 113.18 16.4031 109.91 18.0631C110.21 18.1131 110.52 18.1531 110.83 18.1931C110.14 18.3331 109.44 18.4331 108.74 18.4531C109.07 18.5431 109.38 18.7231 109.62 18.9731C109 18.8331 108.35 18.8231 107.73 18.9431C108 19.0331 108.26 19.1731 108.47 19.3531C107.96 19.3831 107.45 19.4031 106.93 19.4231M127.22 4.00312C127.36 3.91312 127.59 3.84312 127.67 4.00312C127.27 4.35312 126.87 4.72312 126.46 5.08312C126.98 4.93312 127.5 4.81312 128.04 4.73312C127.45 5.54312 125.8 5.09312 125.48 6.03312C126.02 5.75312 126.68 5.71313 127.24 5.93313C126.09 6.02313 124.81 6.19313 124.11 7.10313C124.9 6.84313 125.69 6.59312 126.48 6.32312C126.67 6.26312 126.99 6.28312 126.96 6.49312C126.68 6.47312 126.39 6.55312 126.16 6.71312C126.43 6.77312 126.7 6.84313 126.98 6.90313C125.69 7.04313 124.42 7.30313 123.18 7.68313C124.04 7.68313 124.9 7.68313 125.75 7.70312C125.96 7.70312 126.25 7.87313 126.11 8.03313C124.9 7.89313 123.67 7.94313 122.48 8.18313C122.63 8.27313 122.78 8.37313 122.92 8.46313C121.55 8.74313 120.25 9.36312 119.16 10.2431C118.78 10.5531 118.18 10.8931 117.86 10.5131C118.2 10.3931 118.52 10.2331 118.82 10.0331C118.39 9.87313 117.88 10.0131 117.57 10.3431C117.26 10.6831 117.17 11.2031 117.36 11.6231C117.8 11.5631 118.24 11.5031 118.67 11.4531C118.16 11.6131 117.68 11.8531 117.24 12.1431C117.83 12.0131 118.42 11.9131 119.01 11.8331C118.97 12.0431 118.67 12.0531 118.45 12.0831C118.23 12.1031 117.98 12.3731 118.16 12.5031C118.23 12.5531 118.33 12.5331 118.42 12.5031C120.57 11.9131 122.7 11.1531 124.53 9.90313C126.37 8.65313 127.92 6.88313 128.56 4.75312C128.7 4.27312 128.34 3.75313 127.89 3.54313C127.43 3.33313 126.91 3.35313 126.4 3.38313C126.12 3.39313 125.76 3.48313 125.75 3.76313C124.77 3.50313 123.7 3.56313 122.75 3.93313C123.3 3.91313 123.85 3.93312 124.4 4.01312C123.51 4.53312 122.1 3.79312 121.49 4.62312C122.07 4.58312 122.64 4.53312 123.22 4.48312C123.34 4.57312 123.16 4.75312 123.01 4.77312C122.55 4.87312 122.06 4.81312 121.6 4.86312C121.13 4.90312 120.63 5.07312 120.38 5.48312C121.07 5.39312 121.75 5.30312 122.44 5.21312C122.58 5.46312 122.15 5.61312 121.88 5.60312C121.07 5.55312 120.24 5.75313 119.54 6.17313C120.2 6.12313 120.86 6.05312 121.53 6.00312C121.17 6.37312 120.59 6.34313 120.08 6.39313C119.56 6.45313 118.96 6.73312 118.97 7.24312C119.55 6.94312 120.22 6.82313 120.87 6.88313C120.09 7.14313 119.31 7.42313 118.53 7.68313C119.07 7.63313 119.61 7.58313 120.14 7.53313C120.24 7.69313 119.94 7.80313 119.75 7.79313C118.67 7.75313 117.68 8.78313 117.76 9.85313C118.98 9.76313 120.4 9.56313 121 8.49312C121.8 7.06313 122.95 5.83312 124.34 4.95312C124.48 5.23313 124.18 5.51313 123.91 5.69313C122.86 6.41313 121.98 7.39313 121.37 8.51313C123.66 7.56313 125.17 5.39312 127.24 4.02312M106.12 13.4931C106.53 13.1431 107.18 13.0931 107.63 13.3731C107.25 13.4431 106.87 13.5231 106.5 13.5931C106.37 13.6231 106.24 13.6531 106.15 13.7331C106.06 13.8231 106.04 13.9931 106.15 14.0631C106.45 13.9031 106.82 13.9331 107.1 14.1131C106.7 14.1431 106.32 14.3031 106.01 14.5631C106.51 14.4331 107.06 14.4331 107.56 14.5631C107.08 14.6831 106.61 14.7931 106.13 14.8931C106.22 15.3931 106.48 15.8831 106.87 16.2131C106.95 16.2731 107.05 16.3531 107.15 16.3631C107.26 16.3731 107.37 16.3331 107.47 16.2831C109 15.6131 110.38 14.5731 111.44 13.2831C112.01 12.5931 112.5 11.8031 112.73 10.9431C112.96 10.0731 112.93 9.11313 112.49 8.33313C112.55 8.73313 112.34 9.17313 111.98 9.37313C111.89 9.42313 111.78 9.46313 111.69 9.40313C111.16 9.07313 110.42 9.10312 109.93 9.49312C110.33 9.37312 110.78 9.48313 111.1 9.75313C110.6 9.75313 110.12 9.75313 109.63 9.75313C109.19 9.75313 108.69 9.77313 108.41 10.1031C108.87 10.0231 109.34 10.0531 109.79 10.2031C109.4 10.4431 108.91 10.3431 108.45 10.3331C108 10.3231 107.44 10.5031 107.38 10.9531C107.89 10.7231 108.51 10.7231 109.02 10.9531C108.62 11.1631 108.13 11.0731 107.69 11.1031C107.24 11.1331 106.71 11.3731 106.68 11.8231C107.11 11.6131 107.62 11.6031 108.06 11.7931C107.81 12.0731 107.37 12.0031 107 12.0131C106.63 12.0331 106.17 12.3131 106.3 12.6631C106.78 12.4331 107.35 12.4131 107.84 12.6031C107.59 12.8731 107.16 12.7831 106.79 12.7931C106.42 12.8131 105.97 13.1131 106.13 13.4431M97.4 25.3131C97.49 25.3131 97.57 25.2831 97.64 25.2431C98.04 25.0631 98.44 24.8831 98.84 24.7031C98.72 24.6831 98.63 24.5331 98.68 24.4131C98.99 24.5231 99.33 24.5231 99.64 24.4131C99.16 24.3431 98.68 24.2331 98.23 24.0731C97.91 23.9531 97.53 24.0331 97.27 24.2631C97.45 24.3431 97.6 24.4631 97.71 24.6131C97.62 24.7931 97.36 24.6131 97.17 24.5431C96.91 24.4431 96.62 24.5931 96.4 24.7631C96.18 24.9331 95.97 25.1531 95.7 25.2231C95.42 25.2831 95.27 25.6631 95.43 25.9031C95.2 25.7731 94.93 25.7031 94.69 25.7931C94.45 25.8931 94.3 26.2231 94.45 26.4231C94.22 26.3131 93.93 26.3531 93.74 26.5231C93.54 26.6831 93.46 26.9631 93.53 27.2131C93.38 27.0231 93.09 26.9831 92.86 27.0531C92.63 27.1231 92.44 27.2831 92.25 27.4331C92.58 27.6431 92.82 28.0131 92.88 28.4031C93.31 28.0531 93.77 27.7331 94.25 27.4631C94.13 27.3831 94 27.2931 93.88 27.2231C93.84 27.1231 93.99 27.0431 94.09 27.0931C94.19 27.1331 94.28 27.2231 94.38 27.2131C94.44 27.2131 94.5 27.1731 94.56 27.1431C95.41 26.5731 96.26 26.0031 97.11 25.4331C96.77 25.4131 96.53 24.9931 96.68 24.6931C96.99 24.8031 97.08 25.3031 97.4 25.3031M91.58 29.4031C91.99 29.1331 92.39 28.8231 92.76 28.4931C92.64 28.2731 92.48 28.0631 92.28 27.9331C92.06 27.8031 91.78 27.7631 91.57 27.8931C91.36 28.0231 91.26 28.3431 91.42 28.5431C91.24 28.6531 90.99 28.4231 91.07 28.2231C90.9 28.1831 90.74 28.3531 90.7 28.5231C90.66 28.7031 90.7 28.8831 90.7 29.0531C90.7 29.2231 90.63 29.4331 90.46 29.4931C90.37 29.2431 90.36 28.9631 90.46 28.7131C90.26 28.7131 90.06 28.8331 89.98 29.0131C89.9 29.2031 89.96 29.4331 90.11 29.5631C90.19 29.6331 90.06 29.7631 89.96 29.7431C89.86 29.7131 89.79 29.6231 89.71 29.5631C89.54 29.4531 89.3 29.5031 89.19 29.6731C89.08 29.8331 89.14 30.0831 89.31 30.1931C89.46 30.2831 89.65 30.2631 89.83 30.2731C90.01 30.2731 90.22 30.3331 90.27 30.5131C90.36 30.4931 90.44 30.4331 90.49 30.3531C90.41 30.2331 90.31 30.1231 90.18 30.0531C90.15 29.9831 90.22 29.9131 90.29 29.9131C90.36 29.9131 90.43 29.9531 90.49 29.9731C90.72 30.0731 91 30.0031 91.16 29.8131C91.32 29.6231 91.34 29.3331 91.21 29.1231C91.38 28.9931 91.66 29.2031 91.59 29.4031M106.72 16.6331C106.6 17.0131 106.34 17.3231 106.08 17.6231C105.32 18.4831 104.51 19.2931 103.71 20.1131C103.47 20.3631 103.22 20.6131 102.97 20.8531C103.12 20.9431 103.31 20.8331 103.45 20.7331C104.88 19.6831 106.08 18.3131 106.94 16.7631C106.87 16.7231 106.8 16.6731 106.72 16.6331ZM116.61 13.6831C116.43 13.8531 116.25 14.0131 116.07 14.1831C116.13 14.2631 116.14 14.3831 116.09 14.4731C116.21 14.4831 116.32 14.3931 116.41 14.3031C116.96 13.7731 117.52 13.2331 118.08 12.6931C118.05 12.6231 117.94 12.6531 117.88 12.6931C117.56 12.9031 117.24 13.1031 116.93 13.3131C117.03 13.4031 116.85 13.5231 116.73 13.5131C116.61 13.5031 116.42 13.5431 116.44 13.6631C116.5 13.6631 116.56 13.6731 116.61 13.6731M108.79 23.2731C108.42 23.2431 108.04 23.2231 107.67 23.2131C107.43 23.1931 107.17 23.1831 106.97 23.3231C107.59 23.5731 108.3 23.6031 108.94 23.3931C108.97 23.3231 108.87 23.2731 108.79 23.2731ZM115.92 14.2631C115.85 14.1731 115.71 14.2231 115.62 14.3031C115.43 14.4431 115.26 14.6031 115.1 14.7831C115.4 14.8931 115.76 14.7531 115.91 14.4731C115.94 14.4031 115.97 14.3231 115.91 14.2631M117.13 13.0131C117.38 12.8031 117.6 12.5731 117.83 12.3431C117.64 12.2531 117.4 12.2931 117.25 12.4331C117.1 12.5831 117.05 12.8231 117.13 13.0131ZM111.78 8.91313C111.97 8.88313 112.14 8.75313 112.21 8.57313C111.99 8.55313 111.76 8.65313 111.63 8.82313C111.67 8.88313 111.72 8.93313 111.78 8.94313" fill="white"/>
<path d="M193.35 52.9032C193.29 52.9732 193.22 53.0432 193.16 53.1032C193.12 52.8732 193.25 52.6332 193.45 52.5332C193.47 52.6632 193.43 52.8032 193.35 52.8932" fill="white"/>
<path d="M188.53 54.4731C188.6 54.3231 188.77 54.2131 188.94 54.2031C188.92 54.4331 188.76 54.6431 188.55 54.7231C188.46 54.6731 188.45 54.5331 188.52 54.4631" fill="white"/>
<path d="M187.72 54.9231C187.72 54.9231 187.66 55.0031 187.61 55.0231C187.57 55.0331 187.52 55.0331 187.48 55.0131C187.53 54.6731 187.82 54.3731 188.16 54.3231C188.01 54.5231 187.87 54.7231 187.72 54.9231Z" fill="white"/>
<path d="M198.73 56.2332C198.38 55.7332 198.02 55.2232 197.66 54.7232C197.66 54.9332 197.62 55.1432 197.57 55.3532C197.49 55.2132 197.4 55.0832 197.32 54.9632C196.79 54.1432 196.12 53.4232 195.36 52.8332C195.42 53.4032 195.61 53.9532 195.92 54.4332C195.76 54.5432 195.54 54.4332 195.44 54.2732C195.34 54.1032 195.34 53.9032 195.32 53.7132C195.24 52.9832 194.86 52.2932 194.28 51.8432C194.07 51.6732 193.81 51.5232 193.69 51.2832C194.61 51.4232 195.13 52.4632 195.99 52.8132C196.42 52.9932 196.97 53.0032 197.27 53.3632C196.87 53.4032 196.47 53.3432 196.11 53.1732C196.65 53.7832 197.28 54.4432 198.09 54.4732C198.29 54.4732 198.54 54.4732 198.61 54.6632C198.41 54.7132 198.2 54.7732 198 54.8232C198.24 55.0932 198.47 55.3732 198.71 55.6532C198.79 55.7532 198.87 55.8432 198.89 55.9532C198.91 56.0732 198.86 56.2132 198.74 56.2332" fill="white"/>
<path d="M193.39 50.1832C193.69 49.9832 193.67 49.5332 193.61 49.1732C193.35 47.6132 192.99 45.9232 193.69 44.5032C193.48 46.1832 193.55 47.9032 193.9 49.5632C193.94 48.8732 194.06 48.1932 194.25 47.5232C194.2 48.0632 194.25 48.6132 194.38 49.1432C194.42 48.2032 194.75 47.2732 195.31 46.5132C195.11 47.1632 194.9 47.7932 194.69 48.4432C195.3 47.8432 195.65 47.0032 195.66 46.1532C195.7 46.4432 195.74 46.7332 195.78 47.0232C196.29 46.3332 196.07 45.3732 195.99 44.5132C195.88 43.3132 196.13 42.1032 196.68 41.0332C196.67 41.3232 196.68 41.6232 196.75 41.9132C196.5 42.2132 196.35 42.5932 196.33 42.9832C196.59 42.6532 196.86 42.3232 197.12 42.0032C196.76 42.5732 196.45 43.1832 196.2 43.8032C196.46 43.5132 196.73 43.2332 197 42.9432C196.67 43.4732 196.38 44.0432 196.13 44.6232C196.36 44.3732 196.59 44.1132 196.83 43.8532C196.62 44.3732 196.43 44.8932 196.22 45.4132C196.4 45.2132 196.58 45.0132 196.76 44.8132C196.66 45.2332 196.56 45.6432 196.45 46.0632C196.92 45.4132 197.21 44.6432 197.31 43.8532C197.51 44.9732 196.8 46.0332 196.13 46.9432C195.33 48.0532 194.52 49.1532 193.56 50.1132C192.89 50.7832 192.5 51.6732 192.13 52.5432C194.37 49.6432 196.61 46.7332 198.85 43.8432C198.29 44.2232 197.79 44.7032 197.39 45.2432C197.55 44.4532 197.77 43.6732 198.04 42.9232C198.02 43.4332 198 43.9532 197.98 44.4632C198.27 43.6432 198.57 42.8232 198.86 42.0032C198.77 42.6332 198.68 43.2632 198.59 43.8832C198.94 43.3432 199.19 42.7532 199.32 42.1232C199.42 42.5132 199.37 42.9232 199.21 43.2932C199.79 43.0932 199.91 42.3232 199.89 41.7032C199.88 41.0832 199.89 40.3332 200.41 40.0132C200.21 40.7532 200.13 41.5332 200.17 42.2932C200.73 41.3132 201.5 40.4432 202.41 39.7632C201.93 40.5532 201.38 41.2932 200.74 41.9532C201.2 41.7332 201.66 41.5132 202.12 41.2932C201.8 41.5232 201.48 41.7632 201.17 42.0132C199.54 43.2832 198.12 44.8232 196.98 46.5532C197.46 46.2132 197.93 45.8732 198.41 45.5432C198.25 45.9132 197.97 46.2432 197.61 46.4532C198.18 46.4032 198.73 46.0732 199.03 45.5932C199.1 45.8632 198.96 46.1632 198.72 46.2932C199.25 46.2032 199.74 45.9032 200.04 45.4732C200.04 45.6932 199.99 45.9032 199.89 46.0932C200.25 45.7032 200.86 45.5732 201.35 45.7932C200.41 46.1632 199.42 46.4232 198.42 46.5432C196.66 46.7532 195.52 48.4532 194.63 49.9832C195.96 49.9132 197.29 49.6232 198.52 49.1132C197.58 50.3732 195.27 49.6332 194.27 50.8632C194.66 50.9132 195.07 50.7532 195.31 50.4532C195.23 50.6732 195.15 50.8932 195.07 51.1032C195.56 50.8532 196.02 50.5532 196.44 50.1932C196.26 50.5332 196.05 50.8632 195.81 51.1532C196.27 50.8032 196.74 50.4632 197.21 50.1232C197.04 50.4332 196.87 50.7532 196.69 51.0632C197.17 50.6732 197.65 50.2832 198.13 49.8932C197.96 50.2732 197.71 50.6132 197.4 50.8732C197.72 50.7932 198.03 50.6732 198.32 50.5132C199.39 49.9132 200.1 48.8432 200.76 47.8132C201.47 46.7132 202.21 45.4732 202.01 44.1832C201.92 43.6032 202.5 43.1632 202.77 42.6432C203.3 41.6332 202.57 40.3132 203.05 39.2832C202.43 39.2532 201.81 39.5232 201.4 39.9832C201.37 39.7832 201.4 39.5732 201.49 39.3832C201.14 39.5332 200.87 39.8332 200.76 40.1832C200.63 39.9732 200.67 39.6732 200.84 39.4932C200.19 39.3732 199.5 39.8932 199.45 40.5432C199.45 40.2332 199.45 39.9332 199.45 39.6232C199.15 39.9932 198.94 40.4332 198.83 40.8932C198.73 40.6132 198.71 40.3032 198.78 40.0132C198.38 40.9132 196.97 40.5232 196.15 41.0632C195.78 41.3032 195.56 41.7632 195.59 42.2032C195.53 41.9332 195.47 41.6632 195.41 41.3932C195.27 41.7832 195.13 42.1632 194.99 42.5432L194.91 41.7332C194.68 42.2532 194.5 42.7932 194.38 43.3532C194.38 43.0632 194.38 42.7832 194.37 42.5032C193.5 43.2032 192.77 44.1132 192.4 45.1632C192.04 46.2232 192.06 47.4332 192.58 48.4232C192.41 47.9432 192.52 47.3732 192.85 47.0032C192.91 47.7132 192.82 48.4332 192.59 49.0932C192.75 48.8832 192.91 48.6732 193.08 48.4632C193.08 48.8032 193 49.1432 192.87 49.4532C192.74 49.3432 193.01 49.1432 193.13 49.2632C193.25 49.3832 193.19 49.5932 193.1 49.7432C193.01 49.8832 192.88 50.0232 192.87 50.1932C192.3 49.0932 191.99 47.8532 191.98 46.6132C191.98 45.9532 191.59 45.3532 191.17 44.8432C190.26 43.7432 189.1 42.8532 187.79 42.2732C187.46 42.1232 187.1 41.9832 186.87 41.7032C186.76 41.5732 186.58 41.5232 186.41 41.4832C185.09 41.1732 183.78 40.8732 182.46 40.5632C183.11 41.7732 183.24 43.2432 182.84 44.5532C182.78 44.7332 182.72 44.9132 182.76 45.1032C182.81 45.2832 183.01 45.4432 183.18 45.3532C182.97 46.5732 183.25 47.8732 183.92 48.9132C183.81 48.5332 183.89 48.1032 184.14 47.7832C184.02 48.8732 184.45 50.0032 185.26 50.7432C185.17 50.4732 185.14 50.1932 185.16 49.9132C185.32 50.0032 185.42 50.1632 185.42 50.3432C185.44 50.0732 185.61 49.8332 185.84 49.7032C185.6 50.1432 185.75 50.7432 186.16 51.0232C186.14 50.7032 186.26 50.3832 186.48 50.1432C186.29 50.8632 186.77 51.6932 187.5 51.8732C186.34 51.5532 185.27 50.9132 184.45 50.0332C183.74 49.2732 183.2 48.3232 182.95 47.3032C182.36 44.9332 183.26 42.2032 181.96 40.1332C181.78 39.8432 181.54 39.4732 181.72 39.1732C182.23 40.1432 183.33 40.7632 184.42 40.7032C185.09 40.6732 185.74 40.9232 186.36 41.1832C186.92 41.4132 187.49 41.6432 188.02 41.9232C189.61 42.7532 190.99 43.9832 191.98 45.4832C192.39 44.3032 193.1 43.2132 194 42.3532C195.47 40.9532 197.42 40.1632 199.38 39.6432C200.86 39.2532 202.38 38.9832 203.91 38.8632C203.41 39.1232 203.21 39.7532 203.2 40.3232C203.2 40.8932 203.32 41.4632 203.25 42.0232C203.14 42.9232 202.51 43.6832 202.3 44.5632C202.16 45.1432 202.19 45.7632 202.03 46.3332C201.63 47.7532 200.13 48.6332 199.65 50.0232C200.65 51.4232 201.56 52.8832 202.37 54.3932C202.93 55.4432 203.46 56.5532 203.61 57.7332C203.79 59.0932 203.51 60.6032 204.24 61.7732C203.47 61.1432 202.51 60.7532 201.52 60.6732C200.9 60.6232 200.25 60.6832 199.71 60.3932C199.31 60.1832 199.01 59.7832 198.59 59.6332C196.78 58.9932 195.16 57.8032 193.99 56.2732C193.63 57.2032 193.28 58.1432 192.71 58.9632C192.14 59.7832 191.33 60.4732 190.36 60.7032C189.63 60.8732 188.79 60.7832 188.21 61.2632C187.55 61.8032 186.58 61.5732 185.72 61.5732C184.57 61.5732 183.44 62.1032 182.69 62.9732C183.14 62.1832 183.28 61.2432 183.11 60.3632C182.94 59.5332 182.49 58.6232 182.91 57.8832C183.97 56.0032 185.06 54.0932 186.63 52.6232C187.15 52.1432 187.77 51.5232 187.56 50.8532C187.76 51.1432 187.87 51.4832 187.88 51.8332C188.29 51.6232 188.49 51.0732 188.31 50.6532C188.54 50.9232 188.69 51.2532 188.73 51.6032C189.14 50.9332 189.03 49.9732 188.46 49.4232C188.4 49.5932 188.33 49.7532 188.26 49.9232C188.13 49.7032 188.09 49.4132 188.17 49.1632C187.51 49.1832 186.87 49.2032 186.21 49.2232C186.62 48.9732 187.1 48.8632 187.58 48.8932C187.23 48.1432 187.06 47.3132 187.09 46.4932C186.36 46.9632 185.48 47.1732 184.62 47.1032C184.82 46.7232 185.35 46.7632 185.78 46.7632C186.21 46.7632 186.76 46.4732 186.62 46.0732C186.22 44.9332 184.87 44.2232 183.7 44.5232C184.16 44.2532 184.71 44.1832 185.24 44.1332C184.44 43.5832 183.94 42.6232 183.95 41.6532C184.22 42.3132 184.57 42.9432 184.99 43.5132C184.95 43.0432 185.03 42.5632 185.21 42.1232C185.11 43.6432 185.86 45.1932 187.12 46.0532C186.81 45.3632 186.73 44.5732 186.88 43.8332C186.96 44.1532 187.05 44.4732 187.15 44.7832C187.23 44.4532 187.31 44.1232 187.38 43.7932C187.37 44.1432 187.48 44.4932 187.68 44.7832C187.74 44.1632 187.8 43.5432 187.86 42.9232C187.94 43.6532 188.03 44.3832 188.11 45.1032C188.21 44.8332 188.31 44.5632 188.42 44.2932C188.34 44.6832 188.42 45.0932 188.63 45.4232C188.58 45.0732 188.72 44.7132 188.99 44.4832C188.86 44.8632 188.96 45.3232 189.24 45.6132C189.22 45.3032 189.32 44.9932 189.51 44.7632C189.46 45.1432 189.54 45.5532 189.71 45.8932C189.78 45.4432 189.85 45.0032 189.91 44.5632C190 45.1132 190.12 45.6532 190.26 46.1932C190.28 45.8332 190.42 45.4932 190.65 45.2232C190.55 45.7232 190.61 46.2532 190.82 46.7032C190.82 46.3432 190.97 45.9932 191.22 45.7232C191.09 46.3232 191.16 46.9632 191.43 47.5232C191.51 47.2332 191.58 46.9332 191.66 46.6332C191.7 47.8032 191.95 48.9632 192.37 50.0432C192.45 50.2632 192.65 50.5332 192.87 50.4432C193.04 50.3732 193.07 50.1232 193.21 50.0032C193.35 49.8732 193.61 50.1932 193.42 50.1832M183.76 57.7332C183.68 57.5332 183.62 57.3332 183.55 57.1332C182.92 57.8332 182.79 58.9232 183.24 59.7432C183.34 59.3732 183.61 59.0632 183.96 58.9132C183.7 59.3332 183.48 59.7632 183.28 60.2232C183.46 60.0732 183.65 59.9332 183.85 59.8032C183.52 60.5332 183.34 61.3332 183.33 62.1332C183.55 61.9332 183.74 61.7032 183.89 61.4432C184.6 61.6132 185.4 61.3232 185.83 60.7432C185.75 60.9732 185.67 61.1932 185.58 61.4232C185.89 61.2832 186.17 61.0832 186.38 60.8132C186.41 61.0232 186.34 61.2532 186.19 61.4132C186.55 61.3332 186.86 61.0932 187.03 60.7732C187.07 60.9832 187 61.2132 186.85 61.3732C187.35 61.4732 187.9 61.3032 188.26 60.9332C188.04 60.8932 187.83 60.7532 187.71 60.5632C188.19 60.6032 188.68 60.3332 188.89 59.9132C188.89 60.1932 188.78 60.4632 188.6 60.6732C189 60.4732 189.35 60.2032 189.66 59.8832C189.57 60.1832 189.41 60.4732 189.21 60.7032C189.61 60.5532 189.98 60.2832 190.23 59.9332C190.14 60.2032 190.02 60.4532 189.89 60.6932C190.3 60.4632 190.65 60.1432 190.9 59.7432C190.82 59.9632 190.76 60.1932 190.68 60.4132C191.45 60.1132 192.08 59.4532 192.34 58.6632C192.42 58.4232 192.61 58.2532 192.79 58.0632C193.61 57.1732 193.77 55.8732 193.9 54.6632C193.71 54.7632 193.53 54.8932 193.38 55.0332C193.55 54.7032 193.75 54.3832 193.96 54.0832C193.72 54.1632 193.49 54.2632 193.28 54.4032C193.65 54.1232 193.84 53.6432 193.78 53.2032C193.66 53.4632 193.42 53.6532 193.14 53.7032C193.6 53.4132 193.79 52.7532 193.56 52.2632C193.38 52.3532 193.21 52.4332 193.03 52.5232C193.26 52.3532 193.39 52.0632 193.38 51.7832C193.08 51.9332 192.83 52.1832 192.67 52.4832C192.74 52.3332 192.45 52.3432 192.33 52.4532C191.75 53.0332 191.17 53.6032 190.6 54.1732C190.35 54.4132 190.09 54.7032 190.13 55.0532C190.19 55.5632 189.96 56.0632 189.8 56.5632C189.51 57.3932 189.4 58.2932 189.45 59.1832C189.26 59.1132 189.14 58.8732 189.22 58.6732C189.05 58.7732 188.89 58.8732 188.72 58.9832C189.27 57.6832 189.67 56.3232 189.9 54.9332C188.39 56.3132 187.34 58.1832 186.96 60.1932C186.76 59.6132 186.94 58.9732 187.13 58.3832C186.35 59.1932 185.58 60.0132 184.8 60.8232C184.62 60.8432 184.67 60.5332 184.8 60.4032C185.23 59.9632 185.66 59.5132 186.08 59.0732C185.62 59.2832 185.09 59.4932 184.62 59.3232C186.33 58.9132 187.81 57.6532 188.49 56.0432C187.57 56.1532 186.73 56.7332 186.27 57.5432C186.32 57.3032 186.37 57.0532 186.42 56.8132C185.97 57.1832 185.59 57.6432 185.33 58.1632C185.27 57.5432 185.73 56.9832 186.26 56.6732C186.79 56.3532 187.41 56.2132 187.98 55.9832C189.06 55.5332 189.99 54.7132 190.55 53.6832C190.05 53.8532 189.6 54.1732 189.28 54.6032C189.28 54.3232 189.48 54.0432 189.74 53.9432C188.6 53.9832 187.25 54.2632 186.83 55.3232C186.89 54.9032 187.13 54.5132 187.47 54.2632C186.94 54.3832 186.48 54.7832 186.28 55.2832C186.09 55.1132 186.22 54.8032 186.39 54.6132C187.39 53.5632 189.16 53.9632 190.49 53.4032C191.53 52.9632 192.26 51.8932 192.29 50.7732C191.91 51.2832 191.44 51.7232 190.9 52.0632C191.07 51.7432 191.31 51.4432 191.59 51.2232C191.07 51.3032 190.59 51.6032 190.29 52.0332C190.37 51.7432 190.54 51.4832 190.76 51.2832C190.31 51.3632 189.91 51.6632 189.7 52.0732C189.57 51.9132 189.66 51.6432 189.86 51.6032C189.05 51.4632 188.18 51.9532 187.86 52.7132C187.89 52.4732 187.92 52.2432 187.95 52.0132C187.47 52.3232 187.14 52.8332 187.04 53.3832C186.94 53.0632 186.99 52.6932 187.19 52.4232C186.71 52.7132 186.38 53.2332 186.33 53.7932C186.27 53.6632 186.2 53.5332 186.13 53.3932C185.97 53.8032 185.83 54.2232 185.72 54.6532C185.73 54.4832 185.51 54.3732 185.35 54.4332C185.18 54.4932 185.08 54.6532 185 54.8032C184.46 55.7332 184.04 56.7332 183.75 57.7832M199.67 53.5632C199.54 54.0632 199.46 54.5732 199.44 55.0832C199.57 54.8432 199.7 54.6132 199.82 54.3732C199.81 54.9932 199.79 55.6132 199.78 56.2332C199.91 55.8632 200.05 55.4832 200.19 55.1032C200.28 55.3032 200.3 55.5232 200.26 55.7332C200.68 55.7732 201.08 55.9332 201.41 56.1932C201.37 56.3532 201.13 56.3632 200.99 56.2632C200.85 56.1632 200.73 56.0132 200.57 55.9832C200.29 55.9232 200.06 56.2532 200.05 56.5432C200.04 56.7932 200.12 57.0432 200.27 57.2432C200.88 58.0332 202.36 57.7832 202.82 58.6632C202.19 58.3832 201.55 58.1432 200.9 57.9232C201.45 58.4932 202.01 59.0732 202.4 59.7532C201.85 59.3932 201.37 58.9332 200.98 58.4132C201.14 58.9232 201.14 59.4932 200.98 60.0032C200.9 59.4932 200.83 58.9732 200.74 58.4632C200.71 58.2932 200.69 58.1132 200.6 57.9732C200.4 57.6432 199.97 57.5632 199.59 57.5232C199.56 57.8032 199.53 58.0932 199.5 58.3832C199.29 58.2132 199.33 57.8932 199.3 57.6232C199.27 57.3532 199 57.0532 198.78 57.2132C198.82 57.5032 198.74 57.8032 198.56 58.0432C198.6 57.5932 198.43 57.1232 198.11 56.8032C198.16 57.1032 198.13 57.4032 198.02 57.6832C197.97 57.2632 197.82 56.8532 197.6 56.4932C197.49 57.2232 197.45 57.9732 197.47 58.7132C197.47 58.9132 197.62 59.2032 197.79 59.0932C197.9 59.0332 197.89 58.8632 197.89 58.7332C197.89 58.6032 198.04 58.4432 198.13 58.5332C197.97 58.9432 198.43 59.3932 198.87 59.4032C199.04 59.4032 199.24 59.3732 199.38 59.4832C199.51 59.6032 199.38 59.9032 199.24 59.8032C199.42 59.9332 199.59 60.0532 199.77 60.1832C199.68 59.7232 199.77 59.2432 199.98 58.8332C199.98 59.1832 200 59.5432 200 59.8932C200 60.1332 200.17 60.4832 200.38 60.3632C200.57 60.2632 200.49 59.8732 200.71 59.8332C200.81 59.9832 200.85 60.1832 200.81 60.3632C201.79 60.3532 202.92 60.4032 203.5 61.1832C203.45 59.9132 203.41 58.6432 203.36 57.3832C203.28 57.5132 203.15 57.6132 202.99 57.6532C203.11 56.5632 202.81 55.4332 202.14 54.5632C202.2 54.8632 202.09 55.1932 201.86 55.4032C201.89 54.5032 201.88 53.4732 201.2 52.8832C201.17 53.1132 201.04 53.3232 200.85 53.4632C200.95 52.6132 200.5 51.8032 200.06 51.0732C199.91 50.8132 199.74 50.5432 199.45 50.4232C199.1 50.2832 198.7 50.4632 198.46 50.7432C198.22 51.0232 198.1 51.3932 198.01 51.7532C197.96 51.9632 197.92 52.2032 198.03 52.3832C198.14 52.5732 198.47 52.6132 198.55 52.4032C198.55 52.5332 198.55 52.6532 198.55 52.7832C199.04 52.8932 199.53 52.9932 200.02 53.0932C199.76 53.2632 199.42 53.3232 199.12 53.2532C198.94 53.6232 198.98 54.1032 199.21 54.4432C199.19 54.0932 199.37 53.7332 199.67 53.5532M195.98 51.6332C195.21 51.3332 194.42 51.1032 193.61 50.9432C193.44 51.0132 193.4 51.2432 193.45 51.4032C193.51 51.5732 193.63 51.7232 193.73 51.8732C194 52.3032 194.03 52.8432 194.22 53.3232C194.49 54.0132 195.08 54.5332 195.68 54.9732C197.02 55.9832 198.51 56.7932 200.08 57.3832C199.68 56.7532 199.6 55.9732 199.33 55.2732C199.08 54.6032 198.66 53.9932 198.25 53.4032C198.03 53.0932 197.81 52.7732 197.52 52.5032C197.09 52.0932 196.53 51.8332 195.97 51.6232M190.49 47.7132C190.71 47.7132 190.79 47.9932 190.83 48.2032C190.95 48.9032 191.4 49.5432 192.02 49.8832C191.9 49.1132 191.62 48.3732 191.19 47.7332C191.08 47.5732 190.96 47.4032 190.93 47.2032C190.9 46.9932 190.73 46.8332 190.56 46.6932C190.14 46.3432 189.7 46.0132 189.2 45.8032C188.51 45.5032 187.7 45.4132 187.18 44.8832C187.25 45.6132 187.31 46.3532 187.38 47.0932C187.41 47.3932 187.44 47.7132 187.6 47.9632C187.7 47.7332 187.79 47.5032 187.89 47.2632C188.17 47.5632 187.75 48.0832 187.92 48.4632C187.96 48.5632 188.04 48.6332 188.11 48.7032C189.21 49.7032 190.63 50.3432 192.1 50.4932C192.08 50.4232 192.03 50.3532 191.99 50.2932C191.49 49.6232 190.74 49.1432 189.93 48.9832C189.72 48.9432 189.44 48.7932 189.55 48.6032C189.84 48.6932 190.11 48.7832 190.39 48.8632C190.11 48.3232 189.56 47.9432 188.97 47.8432C188.79 47.8132 188.56 47.7532 188.57 47.5732C188.72 47.5532 188.87 47.5432 189.03 47.5432C188.67 47.1132 188.32 46.6932 187.96 46.2732C187.9 46.2032 187.84 46.1232 187.83 46.0232C187.83 45.9332 187.92 45.8332 188 45.8632C188.56 46.4632 189.03 47.1432 189.4 47.8732C189.28 47.4232 189.23 46.9532 189.26 46.4832C189.5 46.5632 189.52 46.8932 189.56 47.1532C189.65 47.8032 190.17 48.2832 190.65 48.7232C190.6 48.3932 190.55 48.0532 190.5 47.7132M195.94 55.7432C195.91 55.5132 195.8 55.2132 195.58 55.2332C195.63 55.6532 195.65 56.0732 195.61 56.4832C195.33 56.3032 195.33 55.9032 195.33 55.5632C195.33 55.2232 195.21 54.7932 194.87 54.7632C194.9 55.0132 194.84 55.2832 194.7 55.4932C194.54 55.2932 194.59 55.0032 194.61 54.7432C194.63 54.4932 194.58 54.1732 194.34 54.0832C194.28 54.4032 194.22 54.7232 194.16 55.0432C194.15 55.1032 194.14 55.1632 194.18 55.2032C194.34 55.3332 194.25 55.5932 194.21 55.7932C194.13 56.1832 194.28 56.6032 194.57 56.8532C194.49 56.5632 194.63 56.2232 194.89 56.0732C194.95 56.2632 194.86 56.4732 194.84 56.6632C194.81 56.8632 194.9 57.1232 195.1 57.1332C195.2 57.0532 195.18 56.9032 195.19 56.7832C195.21 56.6632 195.36 56.5332 195.44 56.6232C195.57 56.8032 195.31 57.1132 195.46 57.2832C195.59 57.4232 195.83 57.2832 196 57.3632C196.2 57.4432 196.22 57.7232 196.21 57.9432C196.2 58.1632 196.27 58.4532 196.49 58.4532C196.44 58.1632 196.61 57.8632 196.88 57.7432C196.88 57.9732 196.79 58.1932 196.81 58.4232C196.83 58.6532 196.98 58.9032 197.21 58.8932C197.23 58.0532 197.26 57.2032 197.28 56.3632C196.98 56.4432 197.17 57.0332 196.88 57.1332C196.94 56.7432 196.9 56.3332 196.75 55.9632C196.61 55.9832 196.59 56.1932 196.62 56.3432C196.64 56.4832 196.6 56.7032 196.45 56.6932C196.5 56.3532 196.45 56.0032 196.29 55.7032C196 55.8832 196.36 56.5032 196.04 56.6332C196.01 56.3432 195.97 56.0632 195.94 55.7732M189.85 50.1832C189.56 49.9932 189.25 49.8432 188.92 49.7532C189.18 50.2232 189.29 50.7732 189.26 51.3232C189.39 51.3332 189.52 51.3432 189.63 51.2832C189.74 51.2332 189.83 51.0932 189.77 50.9832C189.64 50.7332 189.68 50.4032 189.86 50.1832M190.33 51.0232C190.51 50.9632 190.62 50.7532 190.57 50.5732C190.52 50.3932 190.31 50.2732 190.13 50.3232C189.96 50.5932 189.93 50.9532 190.07 51.2532C190.13 51.1432 190.23 51.0632 190.34 51.0232M197.66 52.4632C197.79 52.0532 197.87 51.6132 197.87 51.1832C197.87 51.1232 197.87 51.0432 197.84 50.9832C197.66 50.9532 197.53 51.1632 197.54 51.3532C197.54 51.5332 197.62 51.7232 197.59 51.9032C197.58 52.0132 197.52 52.1132 197.51 52.2132C197.5 52.3232 197.56 52.4432 197.66 52.4632ZM191.58 50.9432C191.78 50.9432 192.04 50.8732 192.04 50.6732C191.64 50.6432 191.23 50.6232 190.83 50.5932C190.81 50.7132 190.83 50.8432 190.87 50.9532C191.11 50.9532 191.34 50.9532 191.57 50.9432M193.71 50.8932C194.08 50.7132 194.41 50.4632 194.69 50.1632C194.24 50.0932 193.77 50.4432 193.71 50.8932ZM196.18 51.4932C196.31 51.5232 196.43 51.5832 196.53 51.6732C196.59 51.5432 196.62 51.4032 196.61 51.2632C196.36 51.1632 196.06 51.2032 195.85 51.3532C195.94 51.4332 196.06 51.4832 196.18 51.5032M197.3 52.1632C197.39 51.8932 197.41 51.5932 197.35 51.3132C197.34 51.2632 197.31 51.2132 197.27 51.1832C197.03 51.4532 197.04 51.9032 197.29 52.1632M198.8 53.2432C198.82 53.1332 198.72 53.0232 198.61 53.0232C198.49 53.2932 198.53 53.6132 198.7 53.8532C198.81 53.6732 198.84 53.4532 198.79 53.2432M196.91 51.0332C196.79 51.2632 196.76 51.5232 196.81 51.7732C196.81 51.8132 196.86 51.8332 196.89 51.8032C197.04 51.5732 197.05 51.2632 196.91 51.0332ZM192.68 50.8632C192.49 50.9132 192.38 51.1732 192.49 51.3332C192.65 51.2832 192.75 51.0732 192.68 50.9132M195.99 57.7132C195.97 57.6532 195.97 57.6032 195.96 57.5432C195.76 57.5432 195.7 57.8932 195.89 57.9632C195.95 57.8932 195.99 57.7932 196 57.7032" fill="white"/>
<path d="M60.25 63.0299C60.32 63.0799 60.4 63.1299 60.48 63.1799C60.27 63.2499 60.01 63.1699 59.88 62.9899C60 62.9499 60.14 62.9699 60.25 63.0299Z" fill="white"/>
<path d="M62.54 67.46C62.38 67.41 62.25 67.27 62.21 67.11C62.43 67.09 62.66 67.21 62.78 67.4C62.74 67.49 62.62 67.53 62.54 67.47" fill="white"/>
<path d="M63.11 68.17C63.11 68.17 63.2 68.22 63.22 68.26C63.24 68.3 63.25 68.34 63.22 68.38C62.88 68.38 62.55 68.15 62.44 67.83C62.66 67.94 62.88 68.05 63.1 68.17" fill="white"/>
<path d="M62.62 57.28C62.19 57.7 61.75 58.13 61.33 58.56C61.54 58.53 61.75 58.53 61.95 58.56C61.83 58.66 61.72 58.76 61.61 58.86C60.9 59.5 60.3 60.27 59.85 61.1C60.39 60.95 60.9 60.68 61.31 60.31C61.45 60.45 61.38 60.68 61.23 60.8C61.08 60.92 60.89 60.96 60.71 61.01C60.01 61.21 59.41 61.68 59.06 62.31C58.93 62.54 58.83 62.81 58.61 62.97C58.6 62.05 59.53 61.39 59.73 60.49C59.83 60.04 59.76 59.51 60.06 59.16C60.16 59.54 60.16 59.94 60.06 60.32C60.57 59.7 61.1 58.98 61.01 58.19C60.99 58 60.95 57.76 61.11 57.65C61.2 57.84 61.28 58.03 61.37 58.21C61.6 57.93 61.83 57.66 62.06 57.39C62.14 57.3 62.22 57.21 62.32 57.17C62.43 57.13 62.58 57.17 62.62 57.27" fill="white"/>
<path d="M57.61 63.42C57.37 63.16 56.94 63.25 56.59 63.37C55.12 63.87 53.54 64.49 52.05 64.04C53.72 63.98 55.37 63.63 56.92 63.03C56.24 63.1 55.56 63.09 54.88 63.01C55.41 62.97 55.94 62.84 56.43 62.63C55.51 62.74 54.56 62.57 53.74 62.15C54.4 62.25 55.05 62.35 55.71 62.44C55.03 61.95 54.16 61.74 53.34 61.86C53.61 61.77 53.89 61.69 54.16 61.6C53.41 61.21 52.51 61.59 51.69 61.8C50.55 62.1 49.33 62.05 48.21 61.69C48.5 61.66 48.78 61.59 49.05 61.48C49.38 61.68 49.78 61.76 50.16 61.72C49.8 61.52 49.44 61.31 49.08 61.11C49.69 61.37 50.33 61.57 50.98 61.71C50.66 61.5 50.34 61.28 50.02 61.07C50.59 61.31 51.18 61.5 51.78 61.65C51.5 61.46 51.21 61.28 50.92 61.1C51.46 61.22 51.99 61.33 52.53 61.44C52.31 61.3 52.08 61.16 51.86 61.02C52.28 61.05 52.7 61.08 53.12 61.12C52.42 60.77 51.63 60.6 50.84 60.64C51.89 60.27 53.03 60.79 54.03 61.29C55.23 61.89 56.43 62.5 57.52 63.28C58.28 63.82 59.2 64.06 60.11 64.28C56.94 62.57 53.77 60.86 50.6 59.14C51.06 59.62 51.6 60.03 52.19 60.33C51.4 60.3 50.61 60.21 49.84 60.07C50.34 60.01 50.84 59.94 51.34 59.88C50.5 59.73 49.66 59.57 48.82 59.42C49.44 59.41 50.07 59.39 50.69 59.38C50.11 59.12 49.49 58.98 48.86 58.95C49.22 58.8 49.63 58.77 50.01 58.87C49.72 58.34 48.95 58.35 48.36 58.46C47.76 58.57 47.04 58.68 46.64 58.23C47.39 58.31 48.16 58.26 48.89 58.1C47.85 57.71 46.89 57.11 46.08 56.33C46.92 56.67 47.73 57.09 48.47 57.6C48.18 57.19 47.9 56.78 47.61 56.36C47.89 56.63 48.17 56.9 48.46 57.16C49.95 58.54 51.67 59.67 53.53 60.51C53.12 60.1 52.72 59.69 52.32 59.29C52.71 59.39 53.07 59.61 53.33 59.92C53.19 59.37 52.78 58.9 52.27 58.68C52.52 58.57 52.83 58.66 53 58.87C52.83 58.37 52.46 57.95 51.99 57.72C52.2 57.68 52.42 57.7 52.62 57.77C52.18 57.48 51.97 56.91 52.1 56.41C52.61 57.26 53.01 58.18 53.29 59.13C53.77 60.8 55.6 61.64 57.23 62.26C56.95 60.98 56.46 59.74 55.76 58.62C57.14 59.33 56.79 61.69 58.13 62.46C58.13 62.08 57.9 61.7 57.56 61.51C57.78 61.55 58.01 61.6 58.23 61.64C57.91 61.2 57.54 60.81 57.13 60.46C57.49 60.58 57.84 60.73 58.16 60.92C57.75 60.53 57.34 60.13 56.94 59.73C57.27 59.85 57.6 59.96 57.93 60.08C57.47 59.67 57.02 59.27 56.57 58.87C56.96 58.98 57.33 59.16 57.64 59.42C57.51 59.12 57.34 58.84 57.14 58.58C56.39 57.63 55.24 57.12 54.13 56.64C52.95 56.13 51.63 55.61 50.42 56.01C49.87 56.19 49.35 55.69 48.8 55.52C47.73 55.17 46.57 56.09 45.49 55.78C45.56 56.39 45.92 56.95 46.43 57.27C46.24 57.33 46.03 57.33 45.83 57.27C46.03 57.59 46.36 57.8 46.73 57.85C46.54 58.01 46.25 58.02 46.05 57.89C46.04 58.53 46.65 59.12 47.29 59.07C46.99 59.12 46.7 59.17 46.4 59.22C46.81 59.45 47.27 59.59 47.73 59.62C47.48 59.76 47.17 59.83 46.88 59.81C47.81 60.06 47.66 61.49 48.32 62.2C48.62 62.52 49.09 62.66 49.51 62.56C49.26 62.66 49 62.76 48.75 62.86C49.15 62.93 49.54 63.01 49.93 63.09C49.67 63.16 49.42 63.23 49.16 63.3C49.7 63.44 50.26 63.53 50.81 63.56C50.53 63.61 50.26 63.66 49.98 63.71C50.8 64.44 51.79 65.01 52.88 65.2C53.96 65.38 55.13 65.17 56.01 64.51C55.58 64.75 55.01 64.74 54.59 64.47C55.27 64.3 55.98 64.28 56.66 64.39C56.43 64.27 56.2 64.14 55.97 64.02C56.3 63.97 56.64 63.99 56.96 64.07C56.87 64.21 56.64 63.98 56.74 63.85C56.84 63.72 57.05 63.74 57.21 63.8C57.36 63.87 57.51 63.97 57.68 63.96C56.71 64.69 55.55 65.19 54.35 65.39C53.71 65.5 53.19 65.97 52.76 66.46C51.83 67.52 51.16 68.79 50.81 70.14C50.71 70.48 50.64 70.86 50.4 71.12C50.29 71.25 50.27 71.43 50.26 71.6C50.17 72.92 50.09 74.25 50 75.58C51.07 74.76 52.48 74.39 53.81 74.58C53.99 74.61 54.18 74.64 54.35 74.58C54.52 74.5 54.64 74.28 54.52 74.14C55.74 74.14 56.95 73.67 57.85 72.85C57.5 73.02 57.06 73.01 56.72 72.82C57.79 72.77 58.83 72.17 59.41 71.26C59.16 71.39 58.9 71.47 58.62 71.49C58.68 71.33 58.83 71.2 59 71.17C58.74 71.19 58.47 71.07 58.31 70.87C58.77 71.03 59.34 70.79 59.54 70.35C59.23 70.42 58.9 70.35 58.64 70.18C59.37 70.25 60.1 69.65 60.16 68.92C60.04 70.1 59.58 71.24 58.86 72.18C58.23 72.99 57.4 73.66 56.46 74.07C54.26 75.02 51.46 74.58 49.67 76.17C49.42 76.39 49.1 76.68 48.78 76.55C49.64 75.9 50.07 74.73 49.84 73.69C49.7 73.04 49.84 72.37 49.99 71.73C50.12 71.15 50.26 70.57 50.44 70C50.99 68.32 51.96 66.79 53.26 65.6C52.04 65.39 50.88 64.88 49.9 64.14C48.31 62.93 47.23 61.17 46.42 59.35C45.81 57.97 45.3 56.54 44.94 55.08C45.27 55.53 45.91 55.61 46.47 55.53C47.02 55.44 47.56 55.23 48.11 55.21C49 55.18 49.84 55.66 50.72 55.73C51.31 55.77 51.9 55.64 52.48 55.71C53.92 55.87 55.01 57.19 56.44 57.43C57.64 56.24 58.91 55.12 60.25 54.1C61.18 53.39 62.17 52.7 63.29 52.36C64.58 51.97 66.09 52 67.11 51.11C66.62 51.96 66.4 52.95 66.48 53.93C66.53 54.53 66.7 55.16 66.5 55.73C66.36 56.15 66.02 56.5 65.94 56.94C65.6 58.8 64.71 60.56 63.42 61.93C64.38 62.13 65.35 62.32 66.24 62.74C67.13 63.16 67.93 63.84 68.3 64.74C68.58 65.42 68.63 66.25 69.19 66.73C69.82 67.28 69.75 68.26 69.89 69.09C70.08 70.2 70.77 71.22 71.73 71.81C70.9 71.5 69.96 71.51 69.13 71.82C68.35 72.12 67.54 72.7 66.75 72.41C64.75 71.68 62.73 70.93 61.06 69.64C60.51 69.21 59.81 68.71 59.2 69.02C59.45 68.78 59.76 68.62 60.1 68.55C59.83 68.19 59.27 68.08 58.89 68.32C59.11 68.05 59.41 67.86 59.75 67.76C59.03 67.47 58.12 67.73 57.68 68.37C57.85 68.41 58.02 68.44 58.19 68.48C58 68.64 57.73 68.73 57.47 68.68C57.59 69.31 57.71 69.94 57.84 70.57C57.54 70.21 57.35 69.76 57.3 69.3C56.63 69.76 55.85 70.05 55.05 70.15C55.62 70.78 55.97 71.6 56.03 72.45C55.63 72.32 55.58 71.79 55.51 71.38C55.44 70.96 55.07 70.47 54.71 70.67C53.67 71.24 53.19 72.66 53.67 73.75C53.34 73.35 53.18 72.83 53.04 72.32C52.63 73.18 51.78 73.82 50.84 73.97C51.44 73.61 51.99 73.16 52.48 72.66C52.03 72.77 51.55 72.77 51.1 72.67C52.59 72.53 53.97 71.55 54.61 70.2C53.99 70.61 53.24 70.82 52.49 70.78C52.79 70.65 53.08 70.51 53.37 70.37C53.03 70.35 52.71 70.32 52.37 70.3C52.71 70.25 53.04 70.09 53.29 69.85C52.68 69.89 52.07 69.93 51.46 69.97C52.15 69.77 52.84 69.57 53.54 69.38C53.26 69.32 52.98 69.27 52.71 69.21C53.1 69.23 53.48 69.09 53.77 68.83C53.44 68.93 53.06 68.85 52.81 68.63C53.2 68.7 53.62 68.52 53.87 68.21C53.58 68.28 53.26 68.23 53 68.08C53.38 68.06 53.76 67.93 54.07 67.7C53.63 67.7 53.19 67.7 52.74 67.72C53.26 67.55 53.76 67.35 54.26 67.13C53.91 67.17 53.56 67.08 53.26 66.91C53.76 66.93 54.26 66.79 54.67 66.51C54.32 66.56 53.95 66.48 53.66 66.28C54.27 66.31 54.87 66.14 55.37 65.79C55.07 65.76 54.77 65.74 54.47 65.71C55.6 65.48 56.68 65.06 57.67 64.47C57.87 64.36 58.1 64.12 57.98 63.92C57.88 63.77 57.64 63.78 57.5 63.66C57.36 63.54 57.62 63.24 57.64 63.43M66.46 71.57C66.28 71.67 66.09 71.77 65.91 71.87C66.69 72.37 67.76 72.32 68.49 71.75C68.12 71.71 67.77 71.5 67.57 71.18C68.02 71.36 68.47 71.51 68.94 71.63C68.76 71.48 68.6 71.32 68.44 71.15C69.2 71.35 70 71.4 70.78 71.29C70.55 71.11 70.3 70.96 70.03 70.86C70.08 70.15 69.67 69.42 69.04 69.09C69.27 69.13 69.5 69.18 69.74 69.22C69.56 68.94 69.31 68.7 69.02 68.54C69.22 68.48 69.45 68.51 69.63 68.63C69.5 68.3 69.22 68.03 68.88 67.92C69.08 67.85 69.32 67.88 69.49 68C69.5 67.5 69.25 66.99 68.84 66.7C68.84 66.92 68.74 67.14 68.57 67.29C68.54 66.82 68.19 66.39 67.75 66.25C68.02 66.21 68.3 66.27 68.54 66.41C68.28 66.05 67.96 65.75 67.6 65.51C67.91 65.55 68.21 65.66 68.47 65.82C68.26 65.45 67.94 65.14 67.56 64.95C67.83 64.99 68.1 65.07 68.35 65.16C68.07 64.8 67.69 64.51 67.27 64.33C67.5 64.37 67.73 64.4 67.96 64.44C67.54 63.74 66.81 63.23 66 63.11C65.75 63.07 65.56 62.91 65.35 62.77C64.35 62.12 63.07 62.17 61.87 62.24C61.99 62.41 62.15 62.56 62.32 62.68C61.97 62.57 61.63 62.43 61.31 62.27C61.42 62.49 61.56 62.7 61.73 62.88C61.4 62.56 60.91 62.45 60.48 62.59C60.75 62.66 60.97 62.87 61.07 63.13C60.71 62.73 60.05 62.65 59.6 62.95C59.71 63.11 59.82 63.26 59.94 63.42C59.74 63.23 59.44 63.14 59.17 63.2C59.37 63.47 59.65 63.67 59.96 63.78C59.81 63.73 59.86 64.02 59.99 64.11C60.64 64.58 61.29 65.05 61.93 65.52C62.2 65.72 62.53 65.93 62.85 65.84C63.34 65.7 63.86 65.84 64.37 65.92C65.22 66.07 66.12 66.03 66.96 65.84C66.93 66.04 66.71 66.19 66.51 66.15C66.64 66.3 66.76 66.44 66.89 66.58C65.54 66.26 64.16 66.08 62.77 66.08C64.34 67.33 66.33 68.05 68.34 68.09C67.81 68.38 67.16 68.3 66.56 68.21C67.47 68.83 68.39 69.45 69.3 70.08C69.35 70.25 69.04 70.25 68.89 70.15C68.39 69.81 67.89 69.46 67.4 69.12C67.68 69.53 67.96 70.01 67.87 70.5C67.2 68.91 65.75 67.67 64.07 67.27C64.33 68.14 65.02 68.87 65.87 69.18C65.62 69.18 65.38 69.16 65.13 69.15C65.56 69.53 66.07 69.82 66.61 70C66.02 70.15 65.41 69.8 65.02 69.34C64.63 68.87 64.39 68.3 64.07 67.78C63.46 66.8 62.52 66.04 61.43 65.65C61.68 66.11 62.06 66.49 62.52 66.73C62.24 66.77 61.95 66.62 61.8 66.39C62.02 67.49 62.5 68.75 63.6 68.99C63.18 68.99 62.77 68.83 62.47 68.54C62.67 69.04 63.13 69.42 63.65 69.53C63.52 69.74 63.19 69.67 62.99 69.53C61.81 68.72 61.92 66.95 61.17 65.74C60.58 64.8 59.42 64.26 58.33 64.41C58.88 64.7 59.38 65.09 59.8 65.56C59.46 65.45 59.14 65.26 58.88 65.02C59.04 65.51 59.4 65.93 59.87 66.15C59.58 66.12 59.29 66 59.07 65.81C59.22 66.23 59.58 66.57 60 66.71C59.87 66.86 59.59 66.81 59.52 66.63C59.51 67.44 60.13 68.21 60.91 68.39C60.68 68.39 60.45 68.41 60.22 68.41C60.6 68.82 61.14 69.07 61.69 69.08C61.4 69.23 61.03 69.24 60.73 69.09C61.09 69.51 61.64 69.75 62.2 69.71C62.08 69.79 61.97 69.88 61.85 69.96C62.28 70.05 62.7 70.12 63.13 70.16C62.96 70.17 62.89 70.41 62.98 70.56C63.06 70.71 63.23 70.79 63.4 70.84C64.39 71.22 65.43 71.47 66.48 71.58M59.89 56.8C60.39 56.85 60.9 56.84 61.4 56.78C61.15 56.7 60.9 56.61 60.65 56.52C61.25 56.44 61.86 56.35 62.46 56.26C62.08 56.19 61.69 56.11 61.3 56.04C61.48 55.92 61.69 55.87 61.9 55.87C61.87 55.46 61.96 55.04 62.16 54.68C62.32 54.7 62.37 54.93 62.3 55.08C62.23 55.23 62.1 55.37 62.1 55.53C62.09 55.81 62.45 55.98 62.73 55.94C62.97 55.91 63.21 55.79 63.38 55.61C64.05 54.89 63.57 53.5 64.35 52.91C64.18 53.56 64.04 54.22 63.93 54.89C64.4 54.26 64.86 53.63 65.47 53.14C65.21 53.73 64.84 54.27 64.39 54.73C64.86 54.49 65.41 54.4 65.93 54.48C65.45 54.64 64.96 54.79 64.47 54.95C64.31 55 64.14 55.05 64.02 55.17C63.73 55.41 63.73 55.84 63.74 56.22C64.02 56.2 64.31 56.19 64.58 56.17C64.45 56.4 64.13 56.41 63.88 56.48C63.62 56.55 63.37 56.86 63.56 57.05C63.84 56.96 64.14 56.99 64.4 57.13C63.95 57.16 63.53 57.4 63.27 57.77C63.55 57.67 63.85 57.66 64.14 57.72C63.74 57.84 63.37 58.05 63.06 58.32C63.79 58.31 64.52 58.23 65.23 58.1C65.43 58.06 65.68 57.88 65.55 57.72C65.47 57.62 65.31 57.66 65.19 57.68C65.06 57.69 64.88 57.58 64.96 57.48C65.38 57.57 65.74 57.06 65.69 56.62C65.66 56.45 65.6 56.26 65.69 56.12C65.78 55.97 66.09 56.05 66.02 56.21C66.11 56.02 66.21 55.83 66.3 55.64C65.87 55.8 65.39 55.8 64.96 55.66C65.3 55.6 65.64 55.53 65.99 55.47C66.22 55.42 66.54 55.21 66.38 55.02C66.25 54.85 65.89 54.99 65.81 54.78C65.94 54.66 66.13 54.59 66.31 54.6C66.14 53.65 66.02 52.55 66.68 51.86C65.46 52.11 64.24 52.35 63.02 52.6C63.16 52.66 63.28 52.77 63.34 52.91C62.27 52.96 61.22 53.44 60.48 54.22C60.77 54.11 61.1 54.17 61.34 54.36C60.46 54.47 59.47 54.65 59 55.4C59.23 55.4 59.46 55.49 59.62 55.65C58.78 55.68 58.07 56.25 57.43 56.79C57.2 56.98 56.96 57.19 56.9 57.48C56.82 57.84 57.05 58.2 57.37 58.39C57.68 58.58 58.06 58.63 58.42 58.66C58.63 58.68 58.87 58.68 59.03 58.55C59.2 58.41 59.18 58.08 58.97 58.04C59.1 58.02 59.22 58 59.34 57.98C59.36 57.48 59.39 56.99 59.41 56.51C59.61 56.73 59.72 57.05 59.71 57.36C60.1 57.47 60.55 57.36 60.85 57.08C60.51 57.16 60.14 57.04 59.91 56.78M58.6 60.69C58.43 61.48 58.33 62.29 58.31 63.1C58.41 63.25 58.63 63.26 58.79 63.18C58.95 63.1 59.07 62.95 59.2 62.84C59.57 62.51 60.09 62.39 60.53 62.14C61.16 61.77 61.56 61.11 61.9 60.46C62.66 59 63.22 57.42 63.54 55.8C62.99 56.29 62.25 56.49 61.62 56.86C61.01 57.21 60.49 57.71 59.98 58.2C59.71 58.47 59.44 58.73 59.22 59.05C58.89 59.53 58.73 60.12 58.61 60.7M55.67 66.63C55.63 66.41 55.89 66.3 56.09 66.23C56.75 66.01 57.3 65.46 57.53 64.8C56.8 65.03 56.13 65.43 55.58 65.95C55.44 66.08 55.3 66.23 55.11 66.29C54.91 66.36 54.78 66.55 54.67 66.73C54.4 67.19 54.15 67.67 54.02 68.19C53.84 68.91 53.88 69.7 53.45 70.3C54.15 70.12 54.85 69.94 55.56 69.75C55.85 69.67 56.15 69.6 56.37 69.4C56.13 69.34 55.89 69.29 55.65 69.23C55.9 68.91 56.47 69.23 56.81 69.01C56.9 68.95 56.96 68.87 57.01 68.78C57.81 67.56 58.2 66.08 58.11 64.62C58.04 64.65 57.99 64.71 57.93 64.76C57.36 65.35 57.02 66.15 56.98 66.97C56.98 67.18 56.87 67.47 56.68 67.4C56.72 67.11 56.76 66.83 56.8 66.54C56.33 66.9 56.04 67.49 56.04 68.08C56.04 68.26 56.01 68.5 55.84 68.51C55.8 68.37 55.76 68.22 55.73 68.07C55.37 68.48 55.02 68.9 54.67 69.31C54.61 69.38 54.55 69.45 54.45 69.47C54.36 69.49 54.25 69.42 54.27 69.33C54.76 68.69 55.34 68.13 55.99 67.65C55.57 67.83 55.12 67.96 54.67 68.01C54.71 67.76 55.03 67.69 55.27 67.62C55.88 67.43 56.27 66.85 56.62 66.31C56.3 66.42 55.98 66.51 55.67 66.62M62.6 60.07C62.38 60.13 62.11 60.29 62.17 60.5C62.57 60.38 62.97 60.3 63.38 60.27C63.25 60.57 62.86 60.63 62.53 60.68C62.2 60.73 61.8 60.91 61.82 61.25C62.06 61.18 62.33 61.2 62.55 61.3C62.38 61.49 62.09 61.48 61.84 61.51C61.59 61.53 61.29 61.63 61.24 61.88C61.56 61.89 61.88 61.9 62.2 61.9C62.26 61.9 62.32 61.9 62.35 61.85C62.45 61.67 62.71 61.72 62.91 61.73C63.3 61.75 63.68 61.54 63.88 61.21C63.61 61.33 63.26 61.26 63.07 61.02C63.25 60.93 63.46 60.99 63.65 60.98C63.85 60.98 64.09 60.85 64.06 60.65C63.97 60.57 63.82 60.61 63.71 60.61C63.59 60.61 63.44 60.49 63.51 60.39C63.67 60.23 64 60.44 64.14 60.27C64.26 60.13 64.09 59.91 64.13 59.73C64.18 59.52 64.44 59.46 64.66 59.44C64.87 59.41 65.14 59.3 65.11 59.09C64.84 59.18 64.52 59.07 64.36 58.83C64.59 58.8 64.81 58.84 65.03 58.79C65.25 58.74 65.46 58.55 65.42 58.33C64.6 58.44 63.78 58.55 62.96 58.67C63.08 58.95 63.63 58.67 63.77 58.93C63.38 58.93 62.99 59.04 62.66 59.24C62.7 59.38 62.91 59.35 63.05 59.31C63.19 59.27 63.4 59.27 63.42 59.42C63.09 59.42 62.75 59.53 62.48 59.74C62.7 60 63.25 59.55 63.42 59.84C63.14 59.92 62.87 60 62.6 60.07ZM58.17 66.86C58.03 67.17 57.94 67.5 57.9 67.83C58.32 67.5 58.83 67.3 59.36 67.25C59.36 67.13 59.34 66.99 59.27 66.9C59.2 66.8 59.05 66.74 58.96 66.81C58.73 66.98 58.41 66.99 58.17 66.85M58.91 66.27C58.83 66.1 58.6 66.03 58.43 66.11C58.26 66.19 58.18 66.41 58.26 66.58C58.55 66.71 58.91 66.67 59.17 66.49C59.06 66.45 58.96 66.37 58.91 66.26M59.14 58.92C58.72 58.86 58.29 58.85 57.87 58.92C57.81 58.92 57.74 58.94 57.68 58.98C57.68 59.16 57.91 59.25 58.09 59.21C58.27 59.18 58.43 59.08 58.61 59.08C58.72 59.08 58.82 59.11 58.93 59.1C59.04 59.1 59.15 59.02 59.15 58.91M58.63 65.06C58.59 64.87 58.49 64.63 58.3 64.65C58.34 65.04 58.38 65.44 58.41 65.84C58.53 65.84 58.65 65.81 58.76 65.75C58.72 65.52 58.68 65.3 58.64 65.07M58.24 63C58.01 62.67 57.71 62.39 57.37 62.17C57.37 62.62 57.79 63.02 58.24 63ZM58.43 60.51C58.43 60.38 58.48 60.25 58.55 60.14C58.42 60.1 58.27 60.1 58.14 60.13C58.08 60.39 58.17 60.67 58.34 60.85C58.4 60.75 58.43 60.63 58.43 60.5M58.9 59.32C58.62 59.28 58.33 59.3 58.06 59.4C58.01 59.42 57.97 59.45 57.95 59.5C58.25 59.69 58.69 59.61 58.9 59.32ZM59.71 57.69C59.6 57.69 59.51 57.8 59.53 57.91C59.81 57.98 60.12 57.89 60.32 57.69C60.13 57.61 59.91 57.62 59.72 57.7M57.87 59.88C58.11 59.96 58.37 59.95 58.61 59.86C58.64 59.85 58.66 59.8 58.63 59.78C58.39 59.67 58.08 59.71 57.88 59.88M58.38 64.01C58.45 64.19 58.72 64.25 58.87 64.12C58.8 63.97 58.57 63.91 58.44 64.01M64.49 59.7C64.44 59.72 64.39 59.74 64.33 59.76C64.37 59.96 64.72 59.96 64.75 59.76C64.67 59.71 64.57 59.69 64.48 59.69" fill="white"/>
</svg>
